<svg width="25" height="28" viewBox="0 0 25 28" fill="none" xmlns="http://www.w3.org/2000/svg">
<path d="M5.59117 22.2044H8.38675L16.8091 13.8355L13.9423 10.9687L5.59117 19.3376V22.2044ZM17.7528 12.9095L19.1952 11.396C19.3257 11.2654 19.391 11.1022 19.391 10.9063C19.391 10.7105 19.3261 10.5471 19.1962 10.4163L17.3778 8.58298C17.248 8.45216 17.0881 8.38378 16.8981 8.37785C16.7082 8.37191 16.542 8.44017 16.3996 8.58262L14.886 10.0249L17.7528 12.9095ZM2.67094 27.8134C1.93637 27.8134 1.30757 27.5519 0.784544 27.0288C0.261515 26.5058 0 25.877 0 25.1425V5.48433C0 4.74976 0.261515 4.12097 0.784544 3.59794C1.30757 3.07491 1.93637 2.81339 2.67094 2.81339H8.72507C8.97436 1.97056 9.44623 1.29095 10.1407 0.774573C10.8351 0.258191 11.6216 0 12.5 0C13.3784 0 14.1649 0.258191 14.8593 0.774573C15.5538 1.29095 16.0256 1.97056 16.2749 2.81339H22.3291C23.0636 2.81339 23.6924 3.07491 24.2155 3.59794C24.7385 4.12097 25 4.74976 25 5.48433V25.1425C25 25.877 24.7385 26.5058 24.2155 27.0288C23.6924 27.5519 23.0636 27.8134 22.3291 27.8134H2.67094ZM2.67094 25.1425H22.3291V5.48433H2.67094V25.1425ZM13.2657 4.18447C13.4675 3.98267 13.5684 3.72745 13.5684 3.4188C13.5684 3.11016 13.4675 2.85494 13.2657 2.65313C13.0639 2.45133 12.8086 2.35043 12.5 2.35043C12.1914 2.35043 11.9361 2.45133 11.7343 2.65313C11.5325 2.85494 11.4316 3.11016 11.4316 3.4188C11.4316 3.72745 11.5325 3.98267 11.7343 4.18447C11.9361 4.38628 12.1914 4.48718 12.5 4.48718C12.8086 4.48718 13.0639 4.38628 13.2657 4.18447Z" fill="#8A64FF"/>
</svg>
